<?xml version="1.0" standalone="no"?>
<!DOCTYPE svg PUBLIC "-//W3C//DTD SVG 20010904//EN"
 "http://www.w3.org/TR/2001/REC-SVG-20010904/DTD/svg10.dtd">
<svg version="1.0" xmlns="http://www.w3.org/2000/svg"
 width="500.000000pt" height="500.000000pt" viewBox="0 0 500.000000 500.000000"
 preserveAspectRatio="xMidYMid meet">
<metadata>
Created by potrace 1.14, written by Peter Selinger 2001-2017
</metadata>
<g transform="translate(0.000000,500.000000) scale(0.100000,-0.100000)"
fill="#000000" stroke="none">
<path d="M1294 4838 c-73 -76 -97 -116 -118 -188 -28 -98 -25 -172 8 -205 17
-17 20 -25 10 -29 -7 -3 -44 -28 -82 -55 -39 -28 -74 -51 -79 -51 -5 0 -31 15
-58 33 -48 31 -50 34 -53 83 -3 58 -43 196 -58 201 -5 2 -28 -24 -49 -58 l-40
-60 -22 28 -23 28 -1 -30 c-1 -16 -3 -46 -5 -65 -3 -19 -6 -132 -7 -252 l-3
-216 -36 -40 c-127 -141 -247 -384 -293 -595 -2 -10 -6 -26 -9 -35 -3 -9 -7
-37 -10 -62 -3 -25 -8 -70 -12 -100 -17 -130 -1 -465 27 -555 l9 -30 -22 30
c-66 91 -190 167 -307 190 -13 2 -31 7 -41 10 -25 8 -20 -17 19 -99 61 -125
173 -219 277 -232 37 -4 59 -2 69 6 12 10 16 10 19 -1 2 -8 19 -61 37 -119 17
-58 45 -134 60 -169 33 -74 36 -90 12 -68 -31 27 -116 65 -173 76 -47 9 -153
16 -198 12 -20 -2 14 -54 80 -120 98 -99 244 -151 328 -118 l41 16 56 -87
c133 -203 292 -382 451 -507 57 -44 61 -50 42 -57 -11 -4 -61 -6 -110 -4 -59
3 -110 -1 -148 -11 -76 -19 -202 -82 -196 -98 3 -7 -6 -15 -23 -18 -15 -3 -40
-10 -55 -16 l-26 -10 23 -73 c13 -40 26 -81 30 -90 7 -18 -22 -28 -360 -129
-60 -18 -114 -36 -119 -40 -5 -5 20 -38 56 -76 37 -37 81 -84 98 -103 18 -19
57 -61 87 -92 37 -39 53 -63 49 -75 -3 -10 -8 -34 -11 -53 -3 -19 -8 -42 -10
-50 -2 -8 -7 -35 -10 -60 -3 -25 -8 -52 -10 -60 -2 -8 -7 -35 -10 -60 -4 -25
-10 -64 -15 -88 -4 -24 -4 -42 2 -42 10 0 438 129 448 135 3 2 17 6 31 9 26 5
195 54 219 63 8 3 20 7 27 9 6 1 27 7 46 13 l35 12 -24 77 c-24 78 -29 112
-17 112 3 0 79 16 167 36 185 41 187 42 241 50 22 3 58 9 80 14 22 5 63 11 90
14 28 4 82 11 120 16 193 26 364 35 665 35 236 0 428 -7 515 -20 17 -2 54 -6
84 -10 71 -7 183 -23 251 -35 30 -5 73 -12 95 -16 101 -15 395 -82 407 -93 4
-4 -4 -44 -18 -90 -14 -46 -24 -84 -22 -86 3 -3 209 -63 243 -71 11 -2 144
-40 295 -84 151 -43 275 -78 276 -77 2 1 -2 22 -6 47 -47 243 -70 367 -70 380
0 8 22 38 48 66 158 169 237 257 240 264 3 9 -27 19 -298 96 -91 25 -169 50
-174 54 -5 5 3 43 18 86 14 43 23 80 20 83 -3 3 -26 13 -52 22 -26 9 -45 19
-42 23 7 10 -75 55 -155 84 -60 22 -87 26 -192 26 -67 1 -124 3 -126 6 -3 3
42 46 100 95 162 139 282 276 397 455 23 36 45 73 49 82 6 16 9 16 49 2 117
-42 280 33 392 181 43 56 38 64 -37 59 -147 -10 -214 -27 -286 -76 -34 -22
-42 -25 -36 -11 24 57 97 267 110 316 15 53 17 56 32 41 22 -21 81 -15 148 16
66 30 153 121 193 201 27 55 47 109 39 109 -22 0 -164 -48 -209 -71 -62 -31
-142 -103 -158 -142 -12 -31 -12 -2 0 62 21 112 30 359 17 496 -26 292 -150
598 -319 789 l-41 48 -3 217 c-2 119 -5 232 -8 251 -2 19 -4 49 -5 65 l-1 30
-23 -29 -23 -28 -38 61 c-20 34 -41 61 -46 61 -16 0 -57 -132 -64 -203 -4 -56
-11 -64 -68 -96 l-44 -24 -89 62 c-48 33 -81 61 -73 61 19 0 41 50 41 93 2 99
-33 194 -102 280 -37 46 -101 100 -109 92 -12 -12 -17 -172 -7 -230 8 -45 35
-116 56 -147 11 -14 19 -28 19 -31 0 -3 -35 12 -78 33 -73 36 -79 42 -91 82
-23 76 -127 160 -241 194 -55 16 -180 26 -180 15 0 -20 85 -134 134 -178 80
-73 136 -98 227 -100 85 -1 104 -9 254 -101 121 -75 197 -131 190 -142 -6 -9
-110 -45 -160 -54 -85 -17 -81 -18 -47 12 40 36 67 96 49 110 -41 32 -147 36
-223 9 -55 -20 -120 -61 -166 -104 -34 -34 -39 -35 -85 -29 -71 11 -269 79
-360 124 -122 62 -259 158 -344 243 l-78 77 -80 -78 c-175 -171 -458 -319
-688 -362 l-62 -11 -33 32 c-116 113 -313 162 -395 98 -18 -14 10 -76 50 -109
l32 -28 -35 6 c-72 12 -210 55 -210 65 0 17 184 140 302 202 70 37 86 41 151
42 87 0 143 25 222 97 49 45 116 133 132 174 6 16 1 17 -53 11 -105 -12 -128
-18 -189 -46 -98 -46 -185 -138 -185 -195 0 -9 -34 -32 -80 -55 -44 -23 -80
-38 -80 -35 0 3 8 18 18 32 41 59 63 149 62 250 0 42 -2 86 -4 97 -3 11 -5 23
-5 28 -2 17 -21 3 -77 -55z m-569 -945 l5 -52 -39 -21 c-45 -23 -85 -57 -94
-82 -8 -24 43 -66 91 -73 61 -11 62 -11 62 -63 l0 -48 -65 -11 c-85 -15 -168
-58 -216 -111 l-38 -44 19 69 c23 83 66 187 111 270 35 65 148 227 154 221 2
-2 6 -27 10 -55z m3656 -72 c80 -121 173 -334 185 -426 l4 -30 -14 30 c-31 67
-130 128 -244 149 l-67 12 3 35 c6 61 10 66 57 74 25 3 58 17 75 31 29 25 29
27 15 55 -9 16 -39 42 -70 60 -53 30 -54 31 -50 72 2 23 4 49 5 57 1 20 37
-23 101 -119z m-3600 -443 c0 -13 2 -30 4 -38 13 -66 14 -90 2 -91 -164 -11
-328 -104 -379 -216 -10 -24 -20 -43 -22 -43 -13 0 23 342 37 356 2 2 20 -5
40 -15 64 -33 175 -14 267 45 44 29 50 29 51 2z m3487 -1 c69 -43 110 -56 190
-61 42 -3 59 1 87 19 l34 23 6 -41 c4 -23 9 -51 11 -62 10 -55 25 -255 18
-255 -1 0 -14 20 -28 44 -15 25 -43 61 -64 81 -34 32 -139 92 -173 99 -8 2
-32 7 -54 11 -35 7 -56 11 -88 14 -4 1 -5 13 -2 29 2 15 8 48 11 75 4 26 8 47
10 47 3 0 21 -10 42 -23z m-3458 -178 c0 -11 9 -64 20 -117 10 -54 21 -108 24
-122 54 -291 167 -633 293 -883 77 -154 161 -288 271 -435 31 -41 41 -63 37
-79 -3 -13 -8 -49 -11 -80 -8 -81 -7 -80 -59 -88 -26 -3 -53 -9 -61 -12 -10
-4 -10 5 1 47 17 63 12 169 -10 235 -22 65 -73 165 -84 165 -9 0 -51 -91 -71
-153 -17 -54 -15 -183 4 -236 9 -24 16 -46 16 -48 0 -7 -116 93 -199 172 -60
57 -141 150 -214 246 -206 269 -354 674 -373 1024 -3 55 -7 106 -9 113 -3 9 4
8 26 -3 89 -46 260 59 349 214 37 64 50 75 50 40z m3517 -154 c83 -86 196
-128 270 -101 17 5 22 4 19 -6 -3 -7 -7 -53 -10 -103 -8 -108 -11 -130 -37
-263 -73 -368 -256 -709 -529 -983 -99 -99 -220 -207 -220 -196 0 2 7 24 16
48 18 53 21 167 4 229 -16 61 -61 160 -72 160 -12 0 -76 -137 -92 -198 -16
-59 -14 -189 4 -221 6 -13 10 -24 8 -26 -5 -5 -112 17 -119 24 -4 3 -9 34 -12
67 -3 34 -9 73 -12 86 -5 18 0 33 18 54 13 16 46 61 74 99 274 389 443 834
548 1450 4 22 9 44 12 48 3 5 21 -20 41 -54 21 -34 60 -85 89 -114z"/>
<path d="M745 2873 c-157 -64 -269 -193 -270 -313 l0 -55 37 -3 c105 -9 225
127 277 316 22 80 21 81 -44 55z"/>
<path d="M820 2446 c-64 -51 -89 -78 -123 -137 -50 -87 -67 -202 -39 -255 9
-16 18 -20 39 -16 87 16 175 149 189 286 13 119 11 166 -5 166 -3 0 -31 -20
-61 -44z"/>
<path d="M990 2089 c-104 -132 -142 -294 -94 -401 20 -45 46 -56 80 -34 61 41
103 157 99 277 -2 61 -28 195 -40 207 -2 2 -22 -20 -45 -49z"/>
<path d="M4204 2853 c18 -126 114 -286 200 -330 48 -25 93 -32 112 -19 46 34
-8 178 -100 267 -44 43 -176 119 -206 119 -8 0 -10 -12 -6 -37z"/>
<path d="M4108 2473 c-8 -33 2 -158 18 -213 21 -72 58 -141 98 -178 34 -32 87
-54 104 -43 19 11 30 55 27 106 -6 109 -80 233 -183 309 -57 42 -58 42 -64 19z"/>
<path d="M3956 2113 c-47 -162 -40 -309 18 -402 51 -80 101 -89 129 -23 47
107 15 257 -84 390 -42 55 -55 62 -63 35z"/>
<path d="M439 4253 c-62 -157 -55 -325 17 -420 39 -51 61 -59 90 -32 62 58 60
207 -3 344 -24 54 -76 135 -86 135 -4 0 -12 -12 -18 -27z"/>
<path d="M4494 4213 c-63 -106 -81 -163 -85 -263 -3 -95 46 -184 90 -161 79
43 126 213 96 351 -18 78 -42 140 -55 140 -3 0 -24 -30 -46 -67z"/>
<path d="M154 3814 c-9 -62 0 -190 18 -239 36 -101 129 -196 177 -180 24 7 43
80 35 132 -9 56 -33 121 -60 164 -27 43 -142 169 -155 169 -4 0 -11 -21 -15
-46z"/>
<path d="M4781 3815 c-136 -127 -204 -314 -146 -401 13 -21 22 -24 43 -19 42
10 100 73 134 145 26 56 31 79 35 170 3 58 1 116 -4 129 l-10 25 -52 -49z"/>
<path d="M10 3347 c0 -94 58 -232 128 -303 52 -52 84 -71 132 -76 27 -2 36 1
46 20 13 27 3 94 -22 148 -36 75 -142 172 -245 224 l-39 20 0 -33z"/>
<path d="M4948 3359 c-110 -56 -196 -138 -239 -225 -33 -66 -41 -133 -18 -160
13 -16 56 -11 98 10 44 23 119 105 146 160 30 63 57 167 53 205 l-3 29 -37
-19z"/>
<path d="M455 1713 c-105 -22 -106 -24 -44 -72 100 -80 192 -114 302 -112 62
1 114 18 135 44 11 13 11 21 -2 45 -46 89 -217 131 -391 95z"/>
<path d="M4330 1720 c-14 -3 -38 -10 -55 -14 -41 -10 -103 -55 -123 -88 -14
-23 -14 -29 -1 -44 51 -62 219 -60 346 4 46 24 147 102 140 109 -24 23 -253
48 -307 33z"/>
<path d="M2427 622 c-16 -3 -18 -15 -16 -118 l1 -115 32 3 31 3 0 108 c0 114
-5 129 -48 119z"/>
<path d="M2532 619 c-31 -12 -39 -41 -37 -128 2 -64 5 -77 24 -93 13 -10 28
-15 34 -11 5 3 27 6 47 5 l37 -2 -1 62 -1 61 -32 3 c-18 1 -33 -2 -33 -7 0 -6
-4 -8 -8 -5 -11 7 -2 76 10 76 5 0 8 -10 6 -22 -3 -19 2 -22 30 -23 28 -1 32
2 32 26 0 25 -21 58 -38 60 -4 0 -16 2 -27 4 -11 2 -30 -1 -43 -6z m43 -177
c-6 -15 -8 -15 -15 3 -10 28 0 53 12 30 5 -9 7 -24 3 -33z"/>
<path d="M2248 615 c-6 -6 0 -201 6 -221 2 -6 17 -9 33 -7 28 5 29 7 26 49 -3
27 0 44 6 44 6 0 11 -20 11 -45 0 -43 1 -45 30 -45 l30 0 0 115 0 115 -34 0
c-34 0 -35 0 -32 -40 2 -22 0 -40 -5 -40 -4 0 -9 17 -11 38 -3 31 -7 37 -28
40 -14 2 -28 0 -32 -3z"/>
<path d="M2667 613 c-3 -4 -4 -57 -4 -117 2 -106 3 -109 25 -111 28 -2 32 3
34 54 1 23 5 41 10 41 5 0 8 -21 6 -47 -3 -45 -2 -47 25 -48 16 -1 30 3 32 9
8 23 14 216 7 217 -4 1 -18 2 -32 3 -26 1 -27 -1 -29 -58 -1 -42 -15 -22 -16
22 0 33 -3 37 -27 40 -14 2 -28 -1 -31 -5z"/>
<path d="M2033 603 c-10 -4 -9 -112 2 -170 2 -10 4 -28 4 -40 1 -18 7 -21 32
-21 30 1 31 2 27 50 -1 26 0 48 5 48 4 0 8 -11 8 -25 1 -14 3 -29 4 -35 1 -5
3 -14 4 -20 0 -5 14 -10 30 -10 28 0 29 1 26 48 -1 26 -3 77 -4 115 l-1 67
-35 0 c-36 0 -36 0 -31 -40 2 -22 0 -42 -5 -46 -9 -5 -13 22 -10 59 1 9 -1 17
-6 18 -4 0 -15 2 -23 3 -8 2 -20 1 -27 -1z"/>
<path d="M2897 598 c-21 -16 -28 -57 -14 -83 6 -11 24 -32 40 -46 23 -20 28
-31 22 -45 -8 -17 -9 -15 -13 9 -3 22 -8 27 -33 27 -25 0 -29 -4 -29 -29 0
-57 92 -85 124 -39 28 39 20 75 -25 119 -23 23 -37 44 -33 51 5 7 10 4 16 -11
6 -17 14 -22 35 -19 23 2 27 7 25 28 -4 32 -28 50 -67 50 -17 0 -39 -6 -48
-12z"/>
<path d="M1889 586 c-42 -31 -27 -92 31 -125 25 -14 40 -30 40 -42 0 -25 -9
-24 -19 3 -11 31 -61 34 -61 4 0 -12 7 -32 16 -44 30 -43 124 -18 124 33 0 42
-18 72 -53 88 -35 17 -53 42 -37 52 5 3 11 -3 15 -14 3 -11 13 -18 23 -16 9 2
22 4 28 4 14 1 6 49 -9 58 -19 12 -82 11 -98 -1z"/>
<path d="M3060 582 c-26 -21 -42 -122 -31 -194 2 -14 56 -35 81 -32 31 5 60
39 60 70 0 20 -5 24 -29 24 -23 0 -30 -5 -33 -22 -2 -13 -7 -21 -12 -18 -9 5
-10 51 -1 96 2 10 4 25 4 32 1 6 6 12 12 12 6 0 8 -13 5 -30 -2 -16 -1 -31 2
-31 41 -8 57 -2 60 20 5 35 -6 69 -26 75 -47 14 -73 14 -92 -2z"/>
<path d="M1784 523 c4 -32 10 -78 13 -103 3 -25 6 -51 6 -58 0 -8 11 -12 31
-10 35 3 35 3 21 118 -4 36 -8 75 -8 88 -1 18 -7 22 -35 22 l-34 0 6 -57z"/>
<path d="M3206 555 c-3 -13 -9 -48 -11 -77 -3 -29 -8 -70 -11 -90 -5 -40 -6
-39 54 -38 4 0 8 17 10 38 1 20 7 41 13 47 6 6 8 -8 3 -43 -5 -43 -3 -52 9
-52 9 0 22 -3 30 -6 11 -4 17 12 27 78 24 161 24 147 -5 154 -36 9 -41 3 -44
-51 0 -14 -5 -25 -11 -25 -6 0 -7 15 -4 36 4 25 1 39 -8 45 -24 16 -46 9 -52
-16z"/>
<path d="M1673 563 c-6 -2 -6 -25 -1 -61 12 -72 16 -110 17 -145 1 -16 5 -26
10 -23 5 4 28 7 50 8 36 1 41 4 41 25 0 16 -6 23 -19 23 -16 0 -20 11 -27 63
-4 34 -9 65 -10 70 -1 4 -2 16 -3 27 -1 19 -25 24 -58 13z"/>
<path d="M3413 552 c-34 -5 -46 -28 -58 -112 -12 -84 -9 -97 33 -119 17 -9 31
-10 57 -1 30 10 35 17 45 63 19 91 21 116 11 136 -12 22 -56 38 -88 33z m22
-117 c-6 -36 -10 -67 -7 -70 3 -3 0 -5 -7 -5 -12 0 -11 34 3 105 3 11 5 26 5
33 1 7 5 11 10 8 5 -3 3 -34 -4 -71z"/>
<path d="M1525 530 c-14 -16 -16 -30 -11 -77 9 -86 20 -116 48 -133 22 -12 30
-12 51 -1 14 7 30 11 35 7 20 -12 28 19 19 72 -7 45 -11 52 -32 52 -13 0 -30
-7 -38 -15 -13 -12 -15 -10 -21 17 -9 44 -7 60 4 53 6 -3 10 -15 10 -25 0 -12
6 -17 18 -15 9 2 23 4 30 4 17 1 15 47 -4 65 -22 23 -87 21 -109 -4z m79 -136
c8 -22 7 -34 -3 -34 -5 0 -11 11 -13 25 -6 28 6 34 16 9z"/>
<path d="M1438 520 c-13 -8 -15 -16 -7 -42 12 -44 6 -44 -19 1 -18 32 -26 37
-48 33 -27 -5 -27 -12 -8 -107 11 -52 24 -118 24 -122 0 -2 10 -3 23 -1 19 3
22 8 19 48 l-2 45 21 -41 c18 -35 25 -40 49 -36 19 3 27 9 24 20 -2 10 -11 61
-20 115 -16 97 -22 106 -56 87z"/>
<path d="M3560 517 c-31 -16 -55 -103 -51 -185 1 -31 59 -56 95 -42 37 14 47
38 63 156 5 37 2 44 -20 58 -34 23 -60 26 -87 13z m46 -54 c-4 -16 -19 -98
-20 -115 -1 -3 -5 -10 -10 -15 -8 -7 -4 41 8 92 2 11 5 28 5 38 1 9 6 17 12
17 6 0 8 -8 5 -17z"/>
<path d="M1253 488 c-25 -5 -40 -14 -38 -21 2 -7 13 -55 25 -107 12 -52 24
-98 26 -101 5 -9 100 15 97 24 -2 4 -3 14 -3 22 0 9 -9 15 -25 15 -18 0 -25 5
-25 20 0 11 7 23 15 26 8 4 15 15 15 25 0 14 -7 19 -25 19 -18 0 -25 5 -25 20
0 14 7 20 21 20 15 0 19 4 15 16 -3 9 -6 20 -6 25 0 11 -10 10 -67 -3z"/>
<path d="M3700 498 c0 -2 -9 -47 -20 -98 -27 -128 -28 -125 25 -137 40 -9 45
-8 51 9 3 12 0 24 -10 31 -15 11 -15 19 0 95 8 46 14 85 12 87 -5 6 -58 17
-58 13z"/>
</g>
</svg>
